<?xml version="1.0" encoding="UTF-8"?>
<svg xmlns="http://www.w3.org/2000/svg" xmlns:xlink="http://www.w3.org/1999/xlink" version="1.1" width="512" height="512" x="0" y="0" viewBox="0 0 24 24" style="enable-background:new 0 0 512 512" xml:space="preserve">
  <g>
    <linearGradient id="a">
      <stop stop-opacity="1" stop-color="#0787cf" offset="0"/>
      <stop stop-opacity="1" stop-color="#47be88" offset="1"/>
    </linearGradient>
    <linearGradient xlink:href="#a" id="b" x1="19" x2="19" y1="15" y2="23" gradientUnits="userSpaceOnUse"/>
    <linearGradient xlink:href="#a" id="c" x1="12.003" x2="12.003" y1="2.003" y2="21.993" gradientUnits="userSpaceOnUse"/>
    <path fill="url(#b)" d="M21.28 15.72c-.65-.45-1.44-.72-2.28-.72-.94 0-1.81.33-2.5.88A3.97 3.97 0 0 0 15 19c0 .75.21 1.46.58 2.06.04.07.09.14.15.21A3.93 3.93 0 0 0 19 23c1.01 0 1.93-.37 2.63-1 .31-.26.58-.58.79-.94.37-.6.58-1.31.58-2.06 0-1.36-.68-2.56-1.72-3.28zm-.68 4.86c-.15.15-.34.22-.53.22s-.38-.07-.53-.22l-.53-.53-.55.55c-.15.15-.34.22-.53.22s-.38-.07-.53-.22a.754.754 0 0 1 0-1.06l.55-.55-.53-.53c-.29-.29-.29-.77 0-1.06s.77-.29 1.06 0l.53.53.5-.5c.29-.29.77-.29 1.06 0s.29.77 0 1.06l-.5.5.53.53c.29.29.29.76 0 1.06z" opacity="1" data-original="url(#b)"/>
    <path fill="url(#c)" d="M21.85 10.25c-.78-4.45-4.61-7.9-9.12-8.22-6.1-.44-11.14 4.61-10.7 10.7.32 4.51 3.77 8.33 8.22 9.11 1.15.2 2.27.2 3.34.02.31-.05.49-.39.37-.67-.3-.68-.46-1.43-.46-2.2 0-1.69.75-3.25 2.07-4.29.97-.78 2.19-1.21 3.43-1.21.78 0 1.52.16 2.19.46.29.13.62-.06.68-.37.18-1.06.18-2.18-.02-3.33zm-7.35 3.32-1.2.69-1.2.69c-1.49.86-2.71.16-2.71-1.57V10.61c0-1.72 1.22-2.43 2.71-1.57l1.2.69 1.2.69c1.49.88 1.49 2.28 0 3.15z" opacity="1" data-original="url(#c)"/>
  </g>
</svg>
