<svg width="483" height="174" viewBox="0 0 483 174" fill="none" xmlns="http://www.w3.org/2000/svg">
<g filter="url(#filter0_d_534_4683)">
<rect x="24" y="17" width="126" height="126" rx="8.63014" fill="white"/>
</g>
<path d="M90.0368 69.5838H71.7588L66.0116 59.691H95.784L104.452 44.6163H55.2708C53.7208 44.6135 52.1977 45.0218 50.857 45.7998C49.5163 46.5777 48.406 47.6974 47.6393 49.0445C46.8526 50.3877 46.438 51.9162 46.438 53.4727C46.438 55.0293 46.8526 56.5578 47.6393 57.9009L79.0135 112.264C79.7958 113.592 80.9113 114.694 82.2498 115.459C83.5883 116.224 85.1033 116.627 86.645 116.627C88.1868 116.627 89.7018 116.224 91.0403 115.459C92.3787 114.694 93.4943 113.592 94.2766 112.264L95.313 110.474L80.8978 85.4122L90.0368 69.5838Z" fill="#4AD295"/>
<path d="M125.745 49.0445C124.978 47.6974 123.868 46.5777 122.527 45.7998C121.186 45.0218 119.663 44.6135 118.113 44.6163H115.946L92.3921 85.4122L101.06 100.487L125.745 57.8067C126.514 56.4747 126.919 54.9637 126.919 53.4256C126.919 51.8875 126.514 50.3766 125.745 49.0445Z" fill="#4AD295"/>
<path d="M244.031 62.3065C245.874 59.4804 248.455 56.9 252.633 56.9C257.425 56.9 262.463 61.2006 262.463 67.9588C262.463 78.0345 249.315 88.4789 246.489 90.1991C245.137 91.0593 244.769 91.305 244.031 91.305C243.294 91.305 242.925 91.0593 241.574 90.1991C238.748 88.4789 225.6 78.0345 225.6 67.9588C225.6 61.2006 230.638 56.9 235.43 56.9C239.608 56.9 242.188 59.4804 244.031 62.3065Z" fill="#F86264"/>
<g filter="url(#filter1_d_534_4683)">
<rect x="333" y="17" width="126" height="126" rx="8.63014" fill="white"/>
</g>
<path d="M384 116C390.624 116 396 110.624 396 104V92H384C377.376 92 372 97.376 372 104C372 110.624 377.376 116 384 116Z" fill="#0ACF83"/>
<path d="M372 80.0001C372 73.3761 377.376 68.0001 384 68.0001H396V92.0001H384C377.376 92.0001 372 86.6241 372 80.0001Z" fill="#A259FF"/>
<path d="M372 56.0001C372 49.3761 377.376 44.0001 384 44.0001H396V68.0001H384C377.376 68.0001 372 62.6241 372 56.0001Z" fill="#F24E1E"/>
<path d="M396 44.0001H408C414.624 44.0001 420 49.3761 420 56.0001C420 62.6241 414.624 68.0001 408 68.0001H396V44.0001Z" fill="#FF7262"/>
<path d="M420 80.0001C420 86.6241 414.624 92.0001 408 92.0001C401.376 92.0001 396 86.6241 396 80.0001C396 73.3761 401.376 68.0001 408 68.0001C414.624 68.0001 420 73.3761 420 80.0001Z" fill="#1ABCFE"/>
<path d="M134.255 94.6999C133.586 85.4993 200.076 112.613 241.18 75.4963C282.283 38.38 362.625 75.4961 362.625 75.4961" stroke="black" stroke-width="2.625"/>
<circle cx="244.25" cy="73.25" r="3.9375" fill="white" stroke="black" stroke-width="2.625"/>
<circle cx="362.625" cy="77.375" r="3.9375" fill="white" stroke="black" stroke-width="2.625"/>
<circle cx="136.875" cy="93.125" r="3.9375" fill="white" stroke="black" stroke-width="2.625"/>
<defs>
<filter id="filter0_d_534_4683" x="0.739727" y="0.643836" width="172.521" height="172.521" filterUnits="userSpaceOnUse" color-interpolation-filters="sRGB">
<feFlood flood-opacity="0" result="BackgroundImageFix"/>
<feColorMatrix in="SourceAlpha" type="matrix" values="0 0 0 0 0 0 0 0 0 0 0 0 0 0 0 0 0 0 127 0" result="hardAlpha"/>
<feMorphology radius="6" operator="dilate" in="SourceAlpha" result="effect1_dropShadow_534_4683"/>
<feOffset dy="6.90411"/>
<feGaussianBlur stdDeviation="8.63014"/>
<feComposite in2="hardAlpha" operator="out"/>
<feColorMatrix type="matrix" values="0 0 0 0 0 0 0 0 0 0 0 0 0 0 0 0 0 0 0.05 0"/>
<feBlend mode="normal" in2="BackgroundImageFix" result="effect1_dropShadow_534_4683"/>
<feBlend mode="normal" in="SourceGraphic" in2="effect1_dropShadow_534_4683" result="shape"/>
</filter>
<filter id="filter1_d_534_4683" x="309.74" y="0.643836" width="172.521" height="172.521" filterUnits="userSpaceOnUse" color-interpolation-filters="sRGB">
<feFlood flood-opacity="0" result="BackgroundImageFix"/>
<feColorMatrix in="SourceAlpha" type="matrix" values="0 0 0 0 0 0 0 0 0 0 0 0 0 0 0 0 0 0 127 0" result="hardAlpha"/>
<feMorphology radius="6" operator="dilate" in="SourceAlpha" result="effect1_dropShadow_534_4683"/>
<feOffset dy="6.90411"/>
<feGaussianBlur stdDeviation="8.63014"/>
<feComposite in2="hardAlpha" operator="out"/>
<feColorMatrix type="matrix" values="0 0 0 0 0 0 0 0 0 0 0 0 0 0 0 0 0 0 0.05 0"/>
<feBlend mode="normal" in2="BackgroundImageFix" result="effect1_dropShadow_534_4683"/>
<feBlend mode="normal" in="SourceGraphic" in2="effect1_dropShadow_534_4683" result="shape"/>
</filter>
</defs>
</svg>
